# File created by Blade
# Date/Time:  Wed Jan 21 14:28:11 2015
# Frame Rate: 120.000 fps
#------------------------------------------------------
:FULLY-SPECIFIED
:DEGREES
711
root 18.760192 35.447384 -21.574627 -170.585628 -3.404232 -178.861566
Spine -18.557028 -0.901321 1.090241
Head 7.605545 -3.694411 0.622830
LeftShoulder -11.968704 -36.920384 23.426921
LeftArm 5.224243 8.748132 -5.455133
LeftForeArm 18.499974 0.000000 -2.094234
LeftHand -8.030283 -0.000000 -8.022160
LeftHandThumb1 -26.253704 0.000000 33.147579
RightShoulder -11.938121 0.722642 -13.589304
RightArm 8.965152 34.902642 6.513350
RightForeArm -41.310669 -0.000000 4.415925
RightHand -7.096391 -0.000000 14.124120
RightHandThumb1 -24.326973 -0.000000 -32.862282
LeftUpLeg -0.492357 8.520537 1.982254
LeftLeg -7.268030 -0.000000 0.000000
LeftFoot -19.929606 27.090717 -12.064005
LeftToeBase 27.227994 -0.000000 -0.000000
RightUpLeg -1.672024 -12.917703 0.042484
RightLeg -4.329931 -0.000000 0.000000
RightFoot -20.241409 -22.400460 16.265379
RightToeBase 25.308748 -0.000000 -0.000000
712
root 18.760118 35.447395 -21.573470 -170.588710 -3.400195 -178.861998
Spine -18.541137 -0.881200 1.059606
Head 7.574696 -3.999106 0.707613
LeftShoulder -11.954102 -36.897219 23.432632
LeftArm 5.207550 8.706947 -5.475568
LeftForeArm 18.465998 0.000000 -2.095613
LeftHand -8.040494 -0.000000 -8.002874
LeftHandThumb1 -26.253704 0.000000 33.147579
RightShoulder -11.897971 0.753237 -13.624016
RightArm 8.858702 34.859409 6.529051
RightForeArm -41.206925 -0.000000 4.428666
RightHand -7.128512 -0.000000 14.116275
RightHandThumb1 -24.326973 -0.000000 -32.862282
LeftUpLeg -0.488627 8.525076 1.981502
LeftLeg -7.271481 -0.000000 0.000000
LeftFoot -19.924108 27.088316 -12.055520
LeftToeBase 27.229720 -0.000000 -0.000000
RightUpLeg -1.673029 -12.926735 0.042712
RightLeg -4.328610 -0.000000 0.000000
RightFoot -20.229443 -22.375992 16.256383
RightToeBase 25.352827 -0.000000 -0.000000
713
root 18.760362 35.447408 -21.572119 -170.593184 -3.401759 -178.863109
Spine -18.521682 -0.862257 1.029179
Head 7.538486 -4.355577 0.790274
LeftShoulder -11.921431 -36.881022 23.419614
LeftArm 5.183950 8.638427 -5.480843
LeftForeArm 18.428589 -0.000000 -2.104841
LeftHand -8.047445 -0.000000 -8.004608
LeftHandThumb1 -26.253704 0.000000 33.147579
RightShoulder -11.902290 0.711332 -13.616964
RightArm 8.843156 34.918050 6.556501
RightForeArm -41.096970 -0.000000 4.424088
RightHand -7.150463 0.000000 14.100935
RightHandThumb1 -24.326973 -0.000000 -32.862282
LeftUpLeg -0.481633 8.514175 1.981387
LeftLeg -7.281160 -0.000000 0.000000
LeftFoot -19.922020 27.096453 -12.069164
LeftToeBase 27.200320 -0.000000 -0.000000
RightUpLeg -1.671498 -12.938999 0.043586
RightLeg -4.329722 -0.000000 0.000000
RightFoot -20.232754 -22.386060 16.241748
RightToeBase 25.334657 -0.000000 -0.000000
714
root 18.760755 35.447784 -21.570241 -170.592122 -3.407370 -178.857884
Spine -18.511691 -0.853654 1.009485
Head 7.504713 -4.736325 0.853716
LeftShoulder -11.899406 -36.865577 23.424415
LeftArm 5.155955 8.592882 -5.496804
LeftForeArm 18.400311 -0.000000 -2.114670
LeftHand -8.056305 0.000000 -8.033380
LeftHandThumb1 -26.253704 0.000000 33.147579
RightShoulder -11.902496 0.680533 -13.614302
RightArm 8.844395 35.035477 6.606516
RightForeArm -41.198509 -0.000000 4.422925
RightHand -7.094682 -0.000000 14.064454
RightHandThumb1 -24.326973 -0.000000 -32.862282
LeftUpLeg -0.490143 8.516019 1.987798
LeftLeg -7.274396 -0.000000 0.000000
LeftFoot -19.918112 27.092627 -12.045648
LeftToeBase 27.241805 -0.000000 -0.000000
RightUpLeg -1.677793 -12.933512 0.048699
RightLeg -4.323491 -0.000000 0.000000
RightFoot -20.227521 -22.394116 16.239114
RightToeBase 25.309283 -0.000000 -0.000000
715
root 18.760699 35.448087 -21.569128 -170.597790 -3.406706 -178.859020
Spine -18.498211 -0.837501 0.986652
Head 7.468915 -5.079876 0.897450
LeftShoulder -11.860497 -36.862568 23.415048
LeftArm 5.110890 8.547396 -5.496111
LeftForeArm 18.414063 -0.000000 -2.133241
LeftHand -8.000518 -0.000000 -8.076697
LeftHandThumb1 -26.253704 0.000000 33.147579
RightShoulder -11.901655 0.664731 -13.613759
RightArm 8.836261 35.017033 6.623995
RightForeArm -41.190043 -0.000000 4.403336
RightHand -7.132236 -0.000000 14.128313
RightHandThumb1 -24.326973 -0.000000 -32.862282
LeftUpLeg -0.483216 8.518421 1.986198
LeftLeg -7.282667 -0.000000 0.000000
LeftFoot -19.907852 27.095807 -12.047040
LeftToeBase 27.241513 -0.000000 -0.000000
RightUpLeg -1.669500 -12.921782 0.045089
RightLeg -4.329968 -0.000000 0.000000
RightFoot -20.227871 -22.401861 16.253499
RightToeBase 25.312701 -0.000000 -0.000000
716
root 18.761187 35.448351 -21.567788 -170.603591 -3.423220 -178.858031
Spine -18.480338 -0.844635 0.970714
Head 7.425271 -5.354636 0.966183
LeftShoulder -11.836921 -36.856479 23.414745
LeftArm 5.071271 8.519999 -5.498219
LeftForeArm 18.355054 -0.000000 -2.132156
LeftHand -8.018402 -0.000000 -8.097664
LeftHandThumb1 -26.253704 0.000000 33.147579
RightShoulder -11.892357 0.640568 -13.601043
RightArm 8.817708 35.040501 6.620520
RightForeArm -41.211222 -0.000000 4.411498
RightHand -7.158291 -0.000000 14.149583
RightHandThumb1 -24.326973 -0.000000 -32.862282
LeftUpLeg -0.487373 8.516569 1.990028
LeftLeg -7.271824 -0.000000 0.000000
LeftFoot -19.918489 27.080279 -12.057462
LeftToeBase 27.227157 -0.000000 -0.000000
RightUpLeg -1.663375 -12.934740 0.048459
RightLeg -4.332132 -0.000000 0.000000
RightFoot -20.231374 -22.406628 16.251957
RightToeBase 25.319142 -0.000000 -0.000000
717
root 18.761122 35.448575 -21.565991 -170.605701 -3.424420 -178.857328
Spine -18.467302 -0.830788 0.949657
Head 7.389046 -5.599705 1.029566
LeftShoulder -11.819425 -36.860412 23.449048
LeftArm 5.008192 8.535959 -5.544051
LeftForeArm 18.204666 -0.000000 -2.092078
LeftHand -8.114445 -0.000000 -8.085392
LeftHandThumb1 -26.253704 0.000000 33.147579
RightShoulder -11.878441 0.615946 -13.594590
RightArm 8.763648 35.017949 6.603757
RightForeArm -41.197831 -0.000000 4.448113
RightHand -7.142202 -0.000000 14.168469
RightHandThumb1 -24.326973 -0.000000 -32.862282
LeftUpLeg -0.487986 8.516859 1.990556
LeftLeg -7.273119 -0.000000 0.000000
LeftFoot -19.908429 27.074701 -12.047994
LeftToeBase 27.213375 -0.000000 -0.000000
RightUpLeg -1.667858 -12.933263 0.048994
RightLeg -4.324425 -0.000000 0.000000
RightFoot -20.224452 -22.417436 16.234893
RightToeBase 25.298286 -0.000000 -0.000000
718
root 18.760771 35.448958 -21.564174 -170.605924 -3.426500 -178.861238
Spine -18.455723 -0.825503 0.926413
Head 7.356672 -5.812058 1.093425
LeftShoulder -11.806453 -36.844850 23.462785
LeftArm 4.982294 8.529844 -5.557137
LeftForeArm 18.108182 0.000000 -2.112487
LeftHand -8.102796 -0.000000 -8.097722
LeftHandThumb1 -26.253704 0.000000 33.147579
RightShoulder -11.876954 0.570009 -13.574695
RightArm 8.753052 35.032503 6.594151
RightForeArm -41.146979 -0.000000 4.485276
RightHand -7.174957 -0.000000 14.214122
RightHandThumb1 -24.326973 -0.000000 -32.862282
LeftUpLeg -0.487835 8.513269 1.984520
LeftLeg -7.280397 -0.000000 0.000000
LeftFoot -19.889166 27.090357 -12.028049
LeftToeBase 27.244946 -0.000000 -0.000000
RightUpLeg -1.672711 -12.931952 0.044810
RightLeg -4.319630 -0.000000 0.000000
RightFoot -20.231918 -22.403023 16.266493
RightToeBase 25.316335 -0.000000 -0.000000
719
root 18.761147 35.448772 -21.562365 -170.606167 -3.439493 -178.859607
Spine -18.444897 -0.838189 0.920380
Head 7.315778 -6.088736 1.147797
LeftShoulder -11.797713 -36.821018 23.470369
LeftArm 4.948944 8.501387 -5.560206
LeftForeArm 17.978848 -0.000000 -2.125889
LeftHand -8.078490 -0.000000 -8.133826
LeftHandThumb1 -26.253704 0.000000 33.147579
RightShoulder -11.859487 0.557851 -13.553812
RightArm 8.731724 35.079041 6.576402
RightForeArm -41.206135 -0.000000 4.542668
RightHand -7.205365 -0.000000 14.214069
RightHandThumb1 -24.326973 -0.000000 -32.862282
LeftUpLeg -0.496779 8.510306 1.987815
LeftLeg -7.273248 -0.000000 0.000000
LeftFoot -19.892783 27.079933 -12.032839
LeftToeBase 27.241437 -0.000000 -0.000000
RightUpLeg -1.675259 -12.949923 0.049310
RightLeg -4.317686 -0.000000 0.000000
RightFoot -20.229230 -22.402506 16.245653
RightToeBase 25.397463 -0.000000 -0.000000
720
root 18.760521 35.448707 -21.560519 -170.606194 -3.452430 -178.860878
Spine -18.430467 -0.844794 0.911951
Head 7.259959 -6.276671 1.188168
LeftShoulder -11.786936 -36.816940 23.464733
LeftArm 4.935308 8.466591 -5.539473
LeftForeArm 17.955690 -0.000000 -2.183871
LeftHand -7.954304 -0.000000 -8.211064
LeftHandThumb1 -26.253704 0.000000 33.147579
RightShoulder -11.860287 0.528823 -13.550060
RightArm 8.742410 35.111720 6.592707
RightForeArm -41.308192 0.000000 4.532422
RightHand -7.165667 -0.000000 14.147837
RightHandThumb1 -24.326973 -0.000000 -32.862282
LeftUpLeg -0.503812 8.506480 1.979951
LeftLeg -7.283006 -0.000000 0.000000
LeftFoot -19.927264 27.106318 -12.090391
LeftToeBase 27.305049 -0.000000 -0.000000
RightUpLeg -1.676820 -12.960125 0.050108
RightLeg -4.317005 -0.000000 0.000000
RightFoot -20.227014 -22.406344 16.257304
RightToeBase 25.298867 -0.000000 -0.000000
